<svg width="15" height="15" viewBox="0 0 15 15" fill="none" xmlns="http://www.w3.org/2000/svg">
<path d="M11.8681 1.40765C10.6641 0.542897 9.23072 0.0545312 7.74917 0.00430523C6.26762 -0.0459205 4.80444 0.344252 3.54466 1.12548C2.28489 1.90671 1.2851 3.04391 0.67172 4.39329C0.0583423 5.74263 -0.141073 7.24357 0.0986909 8.70626C0.338455 10.1689 1.00663 11.5277 2.01872 12.6107C3.03081 13.6937 4.34135 14.4523 5.78465 14.7905C7.22792 15.1288 8.7391 15.0315 10.1271 14.5111C11.5151 13.9906 12.7176 13.0703 13.5825 11.8665C14.1567 11.0672 14.5679 10.1626 14.7926 9.20445C15.0172 8.24629 15.0509 7.25325 14.8917 6.28203C14.7325 5.31085 14.3835 4.38051 13.8647 3.54417C13.3459 2.70782 12.6675 1.98183 11.8681 1.40765Z" fill="#344786"/>
<path d="M1.30481 11.7214C1.30481 11.7214 6.25768 10.0991 14.987 7.25283C14.987 7.25283 15.4651 11.914 10.6328 14.3453C10.6328 14.3453 8.24991 15.4873 5.63567 14.7547C5.63567 14.7547 3.03251 14.2634 1.30481 11.7214Z" fill="#6988FF"/>
</svg>
